<svg width="180" height="171" viewBox="0 0 180 171" fill="none" xmlns="http://www.w3.org/2000/svg">
<path d="M79.7159 84.5652L37.8644 88.7573L65.3383 51.4345L67.1889 51.0288V41.1572H72.3136V69.2845L77.2959 62.3879V49.2709L104.2 44.5379L126.834 85.6471L122.564 84.7005L103.346 49.2709L79.7159 84.5652Z" fill="#1B50A3"/>
<path d="M97.9369 114.451V89.5688H108.471V116.614" fill="#1B50A3"/>
<path d="M125.696 77.6687L119.29 66.5801H138.507L147.76 81.8608L137.796 68.6085L125.696 77.6687Z" fill="#1B50A3"/>
<path d="M154.308 145.418C146.621 152.855 137.511 158.94 127.404 163.268C117.297 167.595 106.336 170.164 95.2323 170.84C83.9865 171.517 72.5983 170.029 61.6372 166.648C56.2278 164.89 50.8184 162.727 45.8361 160.022C40.7115 157.318 35.8715 154.072 31.4586 150.421C22.4904 143.389 14.8034 134.194 9.39401 123.917C3.98464 113.639 0.852894 102.28 0.141134 90.5154C-0.570626 78.7506 1.4223 66.8506 5.83521 55.7619C10.2481 44.6732 17.2234 34.396 25.9068 25.8766C34.5903 17.3573 45.2667 10.5959 56.9396 6.26864C68.4701 1.80613 80.9971 -0.357507 93.3817 0.0481753C105.766 0.453858 117.866 3.29363 128.827 8.16182C139.788 13.1652 149.468 20.1971 157.298 28.5812C161.141 32.7732 164.7 37.2357 167.689 42.1039C170.679 46.8369 173.099 51.8403 174.949 56.9789C178.793 67.2562 180.359 78.0744 179.932 88.7574C179.505 99.4404 176.942 109.853 172.672 119.454C168.259 129.19 161.995 137.98 154.308 145.418ZM154.308 145.418C161.995 137.98 168.116 128.92 171.818 119.184C175.661 109.447 177.227 99.0347 176.658 88.7574C175.946 78.4801 173.099 68.4733 168.259 59.5483C163.419 50.6233 156.728 42.7801 148.899 36.5596C144.913 33.4494 140.785 30.7448 136.372 28.4459C131.959 26.1471 127.261 24.2539 122.564 22.9016C113.169 20.0618 103.204 18.98 93.524 19.5209C83.8441 20.0618 74.4489 22.3607 65.7654 26.1471C57.0819 29.9334 49.2526 35.2073 42.7044 41.563C36.0138 48.0539 30.7468 55.4914 26.9033 63.7403C23.0598 71.9892 20.9245 81.0494 20.4975 90.2449C20.0704 99.4404 21.3516 108.771 24.6257 117.696C27.7574 126.621 32.8821 135.14 39.5726 142.443C46.2632 149.745 54.6619 155.965 64.1995 160.428C73.7371 164.755 84.2712 167.325 95.0899 167.73C105.909 168.136 116.87 166.378 126.977 162.592C137.226 158.805 146.621 152.99 154.308 145.418Z" fill="#1D51A3"/>
</svg>
