<?xml version="1.0" standalone="no"?>
<!DOCTYPE svg PUBLIC "-//W3C//DTD SVG 20010904//EN"
 "http://www.w3.org/TR/2001/REC-SVG-20010904/DTD/svg10.dtd">
<svg version="1.0" xmlns="http://www.w3.org/2000/svg"
 width="433.000000pt" height="460.000000pt" viewBox="0 0 433.000000 460.000000"
 preserveAspectRatio="xMidYMid meet">

<g transform="translate(0.000000,460.000000) scale(0.100000,-0.100000)"
fill="#000000" stroke="none">
<path d="M0 2300 l0 -2300 2165 0 2165 0 0 2300 0 2300 -2165 0 -2165 0 0
-2300z m2337 1270 c84 -27 128 -64 144 -123 7 -25 10 -112 7 -226 -3 -174 -5
-189 -27 -227 -13 -24 -41 -51 -65 -65 -39 -23 -52 -24 -281 -29 -252 -5 -275
-9 -316 -56 -38 -44 -49 -83 -53 -195 -3 -79 -8 -114 -18 -121 -21 -14 -134
-2 -175 19 -76 40 -119 139 -130 303 -11 172 52 322 150 359 17 7 130 11 291
11 222 0 266 2 276 15 10 12 10 18 0 30 -10 12 -43 15 -176 15 -124 0 -164 3
-165 13 -7 96 0 188 15 212 56 86 342 121 523 65z m398 -356 c80 -42 127 -170
127 -349 0 -157 -54 -274 -146 -316 -37 -17 -70 -19 -304 -19 -227 0 -263 -2
-269 -15 -3 -9 -2 -19 2 -23 3 -4 82 -9 173 -12 l167 -5 3 -92 c3 -114 -10
-146 -72 -174 -138 -60 -323 -71 -462 -25 -155 50 -164 68 -164 316 0 208 9
258 55 305 47 47 96 55 327 55 259 1 297 13 339 105 14 30 19 65 19 142 0 129
6 137 99 131 41 -2 81 -11 106 -24z m-556 -1217 c1 -44 3 -83 5 -85 3 -2 13 1
24 7 37 20 91 13 118 -14 24 -24 25 -29 22 -137 -3 -105 -4 -113 -23 -113 -18
0 -20 8 -25 105 -3 58 -9 111 -13 118 -11 16 -68 16 -91 -1 -16 -12 -18 -27
-17 -109 1 -75 -2 -98 -14 -108 -12 -10 -18 -10 -30 0 -22 19 -22 391 0 414
31 30 43 9 44 -77z m-159 -23 c0 -28 5 -36 25 -44 31 -12 32 -28 3 -32 -22 -3
-23 -8 -26 -96 -3 -88 -2 -93 23 -116 32 -29 31 -36 0 -36 -14 0 -37 11 -50
25 -23 22 -25 31 -25 124 0 70 -4 101 -12 104 -10 4 -10 7 0 18 6 7 12 25 12
40 0 29 26 63 41 54 5 -4 9 -22 9 -41z m567 -59 c31 -21 53 -72 53 -125 0 -81
-53 -140 -125 -140 -73 0 -125 59 -125 142 0 116 106 182 197 123z m289 0 c23
-15 24 -20 24 -135 0 -120 -7 -143 -35 -120 -11 9 -15 37 -15 108 0 75 -4 99
-17 114 -19 21 -75 24 -91 5 -6 -7 -13 -62 -14 -123 -3 -101 -4 -109 -23 -109
-19 0 -20 8 -23 116 -3 128 -3 128 64 154 45 17 95 13 130 -10z m-1330 0 c67
-28 94 -149 49 -219 -22 -33 -67 -50 -120 -44 l-45 6 0 -70 c0 -66 -1 -69 -22
-66 -23 3 -23 5 -26 190 l-2 187 27 15 c36 19 94 20 139 1z m166 -80 c-2 -59
2 -99 10 -115 17 -32 55 -45 91 -31 27 10 27 11 27 110 0 112 4 131 31 131 27
0 32 -32 27 -183 -5 -175 -30 -222 -118 -229 -49 -4 -46 20 4 37 46 16 56 29
56 72 l0 31 -58 -5 c-52 -5 -61 -3 -88 20 -28 24 -29 29 -32 126 -4 105 5 135
37 129 13 -3 15 -18 13 -93z m102 -492 c35 -54 72 -116 83 -137 l20 -39 -1
134 c-1 128 0 134 19 134 19 0 20 -8 23 -163 l3 -163 -27 3 c-23 2 -39 22 -95
113 -38 61 -73 117 -78 125 -7 10 -10 -26 -10 -112 -1 -121 -2 -128 -21 -128
-19 0 -20 7 -20 165 0 159 1 165 20 165 15 0 38 -27 84 -97z m256 -53 l0 -150
70 0 c56 0 70 -3 70 -15 0 -12 -17 -15 -90 -15 l-90 0 0 165 c0 158 1 165 20
165 19 0 20 -7 20 -150z m350 130 c0 -17 -7 -20 -50 -20 l-50 0 0 -145 c0
-138 -1 -145 -20 -145 -19 0 -20 7 -20 145 l0 145 -50 0 c-43 0 -50 3 -50 20
0 19 7 20 120 20 113 0 120 -1 120 -20z m90 -58 l5 -73 59 76 c44 56 65 75 82
75 13 0 24 -3 24 -6 0 -3 -25 -35 -56 -70 l-57 -64 45 -68 c90 -135 84 -122
55 -122 -20 0 -35 16 -78 81 -48 73 -54 79 -66 63 -7 -10 -13 -45 -13 -81 0
-61 -1 -63 -25 -63 l-25 0 0 166 0 165 23 -3 c20 -3 22 -10 27 -76z"/>
<path d="M1896 3471 c-26 -29 -18 -81 16 -100 59 -33 120 28 87 87 -19 35 -76
43 -103 13z"/>
<path d="M2292 2378 c-18 -18 -14 -73 6 -91 56 -51 140 34 86 87 -18 19 -75
21 -92 4z"/>
<path d="M2461 1874 c-28 -36 -29 -117 -1 -161 16 -27 26 -33 53 -33 53 0 72
29 72 110 0 53 -4 73 -19 89 -28 31 -79 28 -105 -5z"/>
<path d="M1432 1888 c-8 -8 -12 -45 -12 -100 0 -76 2 -89 19 -98 23 -12 71
-13 87 -2 35 23 46 129 19 182 -14 26 -21 30 -58 30 -24 0 -48 -5 -55 -12z"/>
</g>
</svg>
